<?xml version="1.0" standalone="no"?><!DOCTYPE svg PUBLIC "-//W3C//DTD SVG 1.1//EN" "http://www.w3.org/Graphics/SVG/1.1/DTD/svg11.dtd"><svg class="icon" height="512" viewBox="0 0 2544 1024" version="1.1" xmlns="http://www.w3.org/2000/svg"><path d="M267.68 192C225.92 192 192 225.92 192 267.68v488.64c0 41.6 33.92 75.68 75.68 75.68H2275.2c41.6 0 76.8-34.08 76.8-75.68V267.68c0-41.76-35.2-75.68-76.8-75.68z m376 99.52c2.72 24.16-6.88 47.84-20.8 65.44-14.56 17.12-37.92 30.4-60.64 28.64-3.04-23.2 8.48-48 21.44-63.04 14.56-17.12 39.84-30.24 60-31.04z m668.96 5.44h16.8v109.92h-16.8z m274.56 0h16v89.6c0 7.36 1.6 14.24 1.6 20.32h-15.04v-12c-4.8 9.12-12.8 13.76-24.16 13.76-9.12 0-16.64-3.52-22.72-10.72-5.92-7.04-8.96-16.32-8.96-27.84 0-12.16 3.2-22.08 9.76-29.6 6.24-7.04 14.08-10.56 23.2-10.56 10.24 0 17.28 3.36 21.28 10.24z m387.2 0h16v45.44h1.6c4.8-8.32 12.8-12.48 22.4-12.48 6.4 0 12.8 2.24 17.6 6.88 4.8 5.6 8 14.08 8 25.28v44.8h-17.6v-42.88c0-13.44-4.8-20.32-14.4-20.32-8 0-12.8 4-16 11.84 0 1.6-1.6 3.68-1.6 6.08v45.28h-16z m-1054.72 4.64c18.4 0 32.16 4 41.44 11.84 10.4 9.12 15.68 21.92 15.68 38.72 0 18.88-5.6 32.96-16.96 42.56-10.4 8.8-25.28 13.12-44.48 13.12-9.6 0-17.76 0-24.48-1.6v-102.88c8.8-1.6 18.4-2.08 28.8-2.08z m1013.12 11.04v18.88h17.6v12.48h-17.6v36.64c0 9.44 3.2 14.08 9.6 14.08 3.2 0 4.8 0 8-1.6v12.64c-3.2 1.6-8 1.92-12.8 1.92-6.4 0-12.8-2.08-16-6.08-3.2-4-4.8-10.72-4.8-20.32V344h-11.2v-12.48h11.2v-13.76z m-1011.68 2.08c-5.28 0-9.76 0-13.6 1.6v78.24h11.36c12.8 0 22.72-3.68 29.76-10.72 7.04-7.2 10.56-17.6 10.56-31.2 0-12.32-3.36-21.6-9.76-28.16-6.4-6.56-15.84-9.76-28.32-9.76z m1178.08 15.04c11.2 0 19.2 4.16 25.6 12.16 4.8 6.4 6.4 14.4 6.4 23.68v7.68H2080c0 7.36 3.2 13.12 8 16.96 3.2 3.52 9.6 5.28 16 5.28 8 0 14.4-1.6 20.8-3.52l1.6 11.68c-6.4 3.04-14.4 4.64-24 4.64-12.8 0-20.8-3.36-28.8-10.24-6.4-6.88-9.6-16.16-9.6-27.84 0-11.36 3.2-20.8 9.6-28.32 6.4-8 14.4-12.16 25.6-12.16z m-842.24 0c7.04 0 12.8 2.4 17.44 6.88 5.92 5.6 8.8 13.92 8.8 24.96v45.28h-16.8v-43.2c0-13.44-5.12-20-15.2-20-4.96 0-8.96 1.76-12.16 5.44-3.04 3.68-4.64 8-4.64 12.96v44.8H1217.6V331.36h14.72l1.6 11.84c2.08-3.68 4.96-6.72 8.8-9.12 4.48-2.88 9.6-4.32 15.2-4.32z m554.24 0c8 0 12.8 2.4 17.6 6.88 6.4 5.6 9.6 13.92 9.6 24.96v45.28h-17.6v-43.2c0-13.44-4.8-20-14.4-20-4.8 0-9.6 1.76-12.8 5.44-3.2 3.68-4.8 8-4.8 12.96v44.8h-16v-53.92c0-6.56 0-13.76-1.6-21.6h16v11.84c3.2-3.68 6.4-6.72 9.6-9.12 4.8-2.88 9.6-4.32 14.4-4.32z m-776.96 0c11.04 0 20 3.68 26.72 11.04 6.4 7.2 9.6 16.32 9.6 27.68 0 11.52-3.36 21.12-9.92 28.48-7.04 7.68-16.16 11.52-27.68 11.52-11.04 0-19.84-3.68-26.4-11.04-6.56-7.36-9.92-16.64-9.92-27.68 0-11.68 3.36-21.28 10.24-28.8 6.72-7.36 15.84-11.2 27.36-11.2z m357.6 0c11.04 0 19.84 3.68 26.72 11.04 6.4 7.2 9.6 16.32 9.6 27.68 0 11.52-3.36 21.12-9.92 28.48-7.04 7.68-16.16 11.52-27.68 11.52-11.04 0-19.84-3.68-26.4-11.04-6.56-7.36-9.92-16.64-9.92-27.68 0-11.68 3.36-21.28 10.24-28.8 6.72-7.36 15.84-11.2 27.36-11.2z m86.72 0c19.68 0 29.6 10.4 29.6 31.2v27.84c0 7.52 0 13.6 1.6 17.92h-15.04l-1.6-8.64c-5.12 6.88-12.48 10.4-22.08 10.4-7.04 0-12.8-2.24-17.12-6.88-4-4-5.92-9.28-5.92-15.36 0-9.12 3.84-16.16 11.52-21.12 7.84-4.8 18.56-7.2 32.64-7.04v-1.6c0-9.92-5.28-14.88-15.68-14.88-7.52 0-14.08 1.92-19.68 5.6l-3.52-11.04c7.04-4.32 15.68-6.56 25.92-6.56z m233.44 0c11.2 0 19.2 3.68 25.6 11.04 6.4 7.2 9.6 16.32 9.6 27.68 0 11.52-3.2 21.12-9.6 28.48-6.4 7.68-16 11.52-27.2 11.52s-19.2-3.68-27.2-11.04c-6.4-7.36-9.6-16.64-9.6-27.68 0-11.68 3.2-21.28 11.2-28.8 6.4-7.36 16-11.2 27.2-11.2z m-624.96 1.6h17.12l8.48 35.84c2.08 8.48 3.84 16.64 5.28 24.16 1.6-6.24 3.2-14.24 6.08-24l10.72-36h13.76l10.24 35.2c2.4 8.64 4.48 16.96 5.92 24.96 1.6-7.84 2.88-16.16 5.12-24.96l9.28-35.2h16.48l-23.68 75.36h-15.36l-9.76-32.64c-2.56-8.16-4.48-16.32-6.08-24.48-1.6 8.32-3.52 16.48-6.08 24.48l-10.4 32.64h-15.52z m1012.16 9.92c-6.4 0-11.2 2.24-14.4 6.88-1.6 3.52-3.2 8-4.8 12.96h35.2c0-4.96-1.6-9.28-3.2-12.8-3.2-4.64-8-7.04-12.8-7.04z m-1065.6 1.6c-6.72 0-11.84 3.04-15.36 8.96-3.04 4.96-4.48 11.04-4.48 18.24 0 7.04 1.6 12.96 4.48 17.92 3.68 6.08 8.64 8.96 15.2 8.96 6.4 0 11.52-3.04 15.04-9.12 3.2-5.12 4.64-11.04 4.64-18.08 0-6.88-1.6-12.96-4.48-17.92-3.52-5.92-8.48-8.96-15.04-8.96z m357.6 0c-6.72 0-11.84 3.04-15.36 8.96-3.04 4.96-4.48 11.04-4.48 18.24 0 7.04 1.6 12.96 4.48 17.92 3.68 6.08 8.64 8.96 15.2 8.96 6.4 0 11.36-3.04 15.04-9.12 3.04-5.12 4.64-11.04 4.64-18.08 0-6.88-1.6-12.96-4.48-17.92-3.52-5.92-8.48-8.96-15.04-8.96z m319.2 0c-6.4 0-11.2 3.04-14.4 8.96-3.2 4.96-4.8 11.04-4.8 18.24 0 7.04 1.6 12.96 4.8 17.92 3.2 6.08 8 8.96 14.4 8.96s11.2-3.04 16-9.12c3.2-5.12 4.8-11.04 4.8-18.08 0-6.88-1.6-12.96-4.8-17.92-3.2-5.92-9.6-8.96-16-8.96z m-140.96 1.6c-6.24 0-11.2 2.4-14.72 7.36-3.68 4.96-5.44 11.36-5.44 19.2 0 7.36 1.76 13.44 5.12 18.08 3.68 4.96 8.64 7.52 14.72 7.52 5.44 0 9.92-2.08 13.28-6.24 3.2-3.84 4.8-8.48 4.8-13.76v-17.92c-1.6-4-3.04-7.36-6.08-10.24a16.32 16.32 0 0 0-11.2-4z m-77.6 26.4c-18.4 0-27.68 4.64-27.68 15.2 0 3.84 1.6 6.88 3.2 8.8 2.08 1.92 4.96 2.88 8.16 2.88 3.68 0 7.2-1.6 10.24-3.36 3.2-2.4 5.12-5.44 5.76-8.96v-3.04z m-860.16 20.64h11.68c13.28 0 50.72 5.28 74.88 40.48-1.92 1.6-44.64 26.24-44.16 77.76 0 61.92 54.08 82.24 54.72 82.56 0 1.6-8.48 29.44-28.48 57.92-16.8 25.12-34.4 49.6-62.24 50.08-27.2 0-36.32-16-67.36-16-31.36 0-41.12 15.52-67.04 16.64-26.56 1.6-46.88-26.72-64.32-51.68-34.72-50.72-61.76-142.88-25.44-205.76 17.6-30.72 49.6-50.56 83.84-51.04 26.56 0 51.2 17.92 67.68 17.92 13.92 0 39.04-16.96 66.24-19.04zM1544.16 480c19.36 0 35.36 3.36 48.32 10.08l-8.64 27.84c-12-6.56-25.6-9.76-40.64-9.76-12 0-21.44 3.04-28.16 8.8-5.76 5.28-8.48 11.68-8.48 19.36 0 8.32 3.2 15.36 9.76 20.8 5.6 5.12 16 10.56 30.88 16.48 18.4 7.36 31.84 16 40.48 25.92 8.64 9.76 12.32 22.08 12.32 36.8 0 18.08-5.6 32.8-18.24 44.32-13.92 12.32-33.28 18.56-58.08 18.56-22.88 0-41.28-4.48-55.2-13.28l8-28.32c14.88 8.96 31.36 13.6 49.28 13.6 12.8 0 22.88-3.04 30.08-8.8 7.04-5.76 10.72-13.6 10.72-23.2 0-8.64-3.04-16-8.96-21.92-5.76-5.92-15.68-11.36-29.28-16.32-37.28-13.92-56-34.4-56-61.12 0-17.6 6.56-31.84 19.68-43.04 12.96-11.2 30.4-16.8 52.16-16.8z m-605.12 3.2h42.4l68.8 212.8h-36.32l-19.84-62.4h-69.12l-19.04 62.4h-35.36z m736.16 21.12v38.24h38.4v25.6h-38.4v74.56c0 18.88 8 28.32 20.8 28.32 6.4 0 11.2 0 14.4-1.6l1.6 25.92c-6.4 2.4-16 3.68-27.2 3.68-12.8 0-24-4.16-30.4-12.32-8-8.16-12.8-21.92-12.8-41.44V568h-22.4v-25.6h22.4v-28.16z m-716.48 7.2c-2.08 9.12-5.44 22.56-10.08 40.16l-17.76 55.68h57.28l-18.08-55.68c-1.92-5.6-5.44-19.04-10.72-40.16z m1124.48 27.52c22.4 0 38.4 8.32 49.6 24.64 9.6 13.12 14.4 29.28 14.4 48.32 0 6.08-1.6 11.36-1.6 15.52h-102.4c0 15.2 4.8 26.72 14.4 34.72 8 7.2 19.2 10.72 33.6 10.72 14.4 0 28.8-2.4 41.6-7.2l4.8 23.68c-14.4 6.4-32 9.44-51.2 9.44-24 0-43.2-7.04-56-20.96-14.4-14.08-20.8-32.8-20.8-56.32 0-23.2 6.4-42.56 19.2-57.92 12.8-16.32 32-24.64 54.4-24.64z m-920.16 0c18.24 0 33.28 7.2 45.44 21.44 12 14.4 18.08 33.28 18.08 56.64 0 26.08-7.04 46.72-21.12 61.92-12.64 13.44-28.32 20.16-47.04 20.16-20.32 0-34.88-7.2-43.68-21.76v80.8H1080V593.12c0-16.48 0-33.28-1.6-50.56h30.08l1.76 24.32c11.36-18.4 28.64-27.52 51.68-27.52z m176.64 0c18.08 0 33.28 7.2 45.28 21.44 12.16 14.4 18.24 33.28 18.24 56.64 0 26.08-7.04 46.72-21.28 61.92-12.48 13.44-28.32 20.16-47.04 20.16-20.16 0-34.72-7.2-43.52-21.76v80.8h-34.72V593.12c0-16.48 0-33.28-1.6-50.56h29.92l1.92 24.32c11.36-18.4 28.64-27.52 51.84-27.52z m645.92 0h8v32.48c-3.2 0-6.4-1.6-9.6-1.6-12.8 0-22.4 4.64-28.8 13.6-4.8 8-8 18.24-8 30.4v80.48h-35.2l1.6-105.12c0-17.76-1.6-33.76-1.6-48.32h28.8l1.6 29.28h1.6c3.2-10.08 9.6-18.08 17.6-24.32 6.4-5.44 14.4-8.16 24-8.16z m-176 0c22.4 0 40 7.52 54.4 22.4 12.8 14.56 19.2 33.28 19.2 56.32 0 23.52-6.4 42.88-20.8 58.08-14.4 15.52-32 23.36-56 23.36-22.4 0-40-7.52-54.4-22.4-12.8-15.04-19.2-33.92-19.2-56.64 0-23.68 6.4-43.2 20.8-58.4 12.8-15.2 32-22.72 56-22.72z m270.4 23.36c-11.2 0-20.8 4.64-27.2 13.92-4.8 7.36-9.6 16.16-9.6 26.56h70.4c0-10.24-1.6-18.88-6.4-26.24-6.4-9.44-14.4-14.24-27.2-14.24z m-272 1.6c-14.4 0-24 6.08-32 18.4-4.8 10.08-8 22.4-8 36.96 0 14.24 3.2 26.4 8 36.48 8 12.32 17.6 18.4 32 18.4 12.8 0 22.4-6.24 30.4-18.72 6.4-10.24 9.6-22.56 9.6-36.8 0-14.08-3.2-26.24-9.6-36.32-6.4-12.32-17.6-18.4-30.4-18.4z m-656 2.24c-8.32 0-16 2.72-22.88 8.32-6.88 5.6-11.36 12.96-13.44 21.92-1.6 4.32-1.6 7.68-1.6 10.4v25.6c0 11.2 3.52 20.64 10.24 28.32 6.88 7.68 15.84 11.52 26.72 11.52 12.96 0 22.88-4.96 30.08-14.88 7.2-9.92 10.72-22.88 10.72-39.2 0-14.88-3.36-27.2-10.08-36.96-7.36-9.76-17.28-14.72-29.76-14.72z m176.64 0c-8.48 0-16 2.72-22.88 8.32-6.88 5.6-11.36 12.96-13.44 21.92-1.6 4.32-1.6 7.68-1.6 10.4v25.6c0 11.2 3.36 20.64 10.24 28.32 6.88 7.68 15.68 11.52 26.72 11.52 12.8 0 22.88-4.96 30.08-14.88 7.04-9.92 10.72-22.88 10.72-39.2 0-14.88-3.36-27.2-10.24-36.96-7.36-10.08-17.12-15.04-29.6-15.04z" fill="" /></svg>